<?xml version="1.0" encoding="UTF-8" standalone="no"?>
<!-- Created with Inkscape (http://www.inkscape.org/) -->

<svg
   xmlns:dc="http://purl.org/dc/elements/1.1/"
   xmlns:cc="http://creativecommons.org/ns#"
   xmlns:rdf="http://www.w3.org/1999/02/22-rdf-syntax-ns#"
   xmlns:svg="http://www.w3.org/2000/svg"
   xmlns="http://www.w3.org/2000/svg"
   xmlns:sodipodi="http://sodipodi.sourceforge.net/DTD/sodipodi-0.dtd"
   xmlns:inkscape="http://www.inkscape.org/namespaces/inkscape"
   width="128"
   height="128"
   id="svg2"
   version="1.1"
   inkscape:version="0.48.2 r9819"
   sodipodi:docname="wp7_logo_small.svg"
   inkscape:export-filename="C:\src\sehack5\LndrMeApp\images\svg\wp7_logo_small_200.png"
   inkscape:export-xdpi="140.63"
   inkscape:export-ydpi="140.63">
  <defs
     id="defs4" />
  <sodipodi:namedview
     id="base"
     pagecolor="#ffffff"
     bordercolor="#666666"
     borderopacity="1.0"
     inkscape:pageopacity="0.0"
     inkscape:pageshadow="2"
     inkscape:zoom="4.0390625"
     inkscape:cx="64"
     inkscape:cy="64"
     inkscape:document-units="px"
     inkscape:current-layer="layer3"
     showgrid="false"
     inkscape:window-width="1366"
     inkscape:window-height="706"
     inkscape:window-x="-8"
     inkscape:window-y="-8"
     inkscape:window-maximized="1"
     showguides="false" />
  <metadata
     id="metadata7">
    <rdf:RDF>
      <cc:Work
         rdf:about="">
        <dc:format>image/svg+xml</dc:format>
        <dc:type
           rdf:resource="http://purl.org/dc/dcmitype/StillImage" />
        <dc:title></dc:title>
      </cc:Work>
    </rdf:RDF>
  </metadata>
  <g
     inkscape:groupmode="layer"
     id="layer2"
     inkscape:label="Shapes"
     style="display:none"
     transform="translate(0,32)"
     sodipodi:insensitive="true">
    <path
       style="fill:#23395b;fill-opacity:1;stroke:none"
       d="m 16,80.00001 c 0,-10.6667 0,-85.33332 0,-96.00002 l 95.93768,0 c 0.0208,10.6667 0.0416,85.33332 0.0623,96.00002 z"
       id="path3023-7"
       inkscape:connector-curvature="0"
       sodipodi:nodetypes="ccccc" />
    <path
       style="fill:#000000;fill-opacity:1;stroke:none"
       d="m 16,80.00001 0,-32 c 0,0 5.33333,2.75 8,2.75 2.66667,0 8,-2.75 8,-2.75 0,0 5.33333,2.75 8,2.75 2.66667,0 8,-2.75 8,-2.75 0,0 5.33333,2.75 8,2.75 2.66667,0 8,-2.75 8,-2.75 0,0 5.33333,2.75 8,2.75 2.66667,0 8,-2.75 8,-2.75 0,0 5.33333,2.75 8,2.75 2.66667,0 8,-2.75 8,-2.75 0,0 5.32292,2.75 8,2.75 2.67708,0 8,-2.75 8,-2.75 l 0,32 z"
       id="path3023"
       inkscape:connector-curvature="0"
       sodipodi:nodetypes="cczczczczczczccc" />
    <path
       sodipodi:type="arc"
       style="fill:#ffffff;fill-opacity:1;stroke:none"
       id="path3819"
       sodipodi:cx="50.5"
       sodipodi:cy="48.25"
       sodipodi:rx="40"
       sodipodi:ry="40"
       d="m 90.5,48.25 a 40,40 0 1 1 -80,0 40,40 0 1 1 80,0 z"
       transform="translate(13.5,-16.25001)" />
    <path
       sodipodi:type="arc"
       style="fill:#000000;fill-opacity:1;stroke:none"
       id="path3829"
       sodipodi:cx="44.5"
       sodipodi:cy="41.75"
       sodipodi:rx="37.5"
       sodipodi:ry="37.5"
       d="m 82,41.75 a 37.5,37.5 0 1 1 -75,0 37.5,37.5 0 1 1 75,0 z"
       transform="translate(19.5,-9.75001)" />
    <path
       sodipodi:type="arc"
       style="fill:#ffffff;fill-opacity:1;stroke:none;display:inline"
       id="path3917-5"
       sodipodi:cx="41.75"
       sodipodi:cy="42.75"
       sodipodi:rx="33.75"
       sodipodi:ry="33.75"
       d="m 75.5,42.75 a 33.75,33.75 0 1 1 -67.5,0 33.75,33.75 0 1 1 67.5,0 z"
       transform="translate(22.25,-10.75001)" />
    <path
       style="fill:#ff0000;fill-opacity:1;stroke:none;display:inline"
       d="m 48.0005,47.99999 c 0,0 -5.33333,2.75 -8,2.75 -1.31647,0 -3.283747,-0.665054 -4.9375,-1.34375 5.907091,9.79537 16.664928,16.34375 28.9375,16.34375 12.272572,0 23.030409,-6.54838 28.9375,-16.34375 -1.653753,0.678696 -3.62103,1.34375 -4.9375,1.34375 -2.66667,0 -8,-2.75 -8,-2.75 0,0 -5.33333,2.75 -8,2.75 -2.66667,0 -8,-2.75 -8,-2.75 0,0 -5.33333,2.75 -8,2.75 -2.66667,0 -8,-2.75 -8,-2.75 z"
       id="path3023-8-7"
       inkscape:connector-curvature="0" />
  </g>
  <g
     inkscape:groupmode="layer"
     id="layer3"
     inkscape:label="Logo"
     style="display:inline"
     transform="translate(0,32)">
    <path
       style="fill:#23395b;fill-opacity:1;stroke:none;display:inline"
       d="m 0,96.00002 c 0,-14.222261 0,-113.777739 0,-128 l 127.91691,0 c 0.0277,14.222261 0.0554,113.777739 0.0831,128 z"
       id="path3023-7-8"
       inkscape:connector-curvature="0"
       sodipodi:nodetypes="ccccc" />
    <path
       style="fill:#ffffff;fill-opacity:1;stroke:none;display:inline"
       d="M 64,-8 C 41.90861,-8 24,9.90861 24,32 24,54.09139 41.90861,72 64,72 86.09139,72 104,54.09139 104,32 104,9.90861 86.09139,-8 64,-8 z M 48,48 c 0,0 5.33333,2.75 8,2.75 2.66667,0 8,-2.75 8,-2.75 0,0 5.33333,2.75 8,2.75 2.66667,0 8,-2.75 8,-2.75 0,0 5.33333,2.75 8,2.75 1.31647,0 3.283747,-0.665054 4.9375,-1.34375 C 87.030409,59.201624 76.272572,65.75 64,65.75 51.727428,65.75 40.969591,59.201624 35.0625,49.40625 36.716253,50.084946 38.68353,50.75 40,50.75 42.66667,50.75 48,48 48,48 z"
       id="path3819-1"
       inkscape:connector-curvature="0" />
  </g>
</svg>
